<!-- Generated by IcoMoon.io -->
<svg version="1.1" xmlns="http://www.w3.org/2000/svg" width="32" height="32" viewBox="0 0 32 32">
<title>pay_cash_on_delivery</title>
<path d="M6.476 2.935v2.497h-4.769v4.995h4.769v2.497l4.995-4.995-4.995-4.995zM23.506 6.843c2.753 0 5.219 1.233 6.875 3.176l0.011 0.013c0-0.183 0-0.367 0-0.55 0-3.834-3.108-6.942-6.942-6.942s-6.942 3.108-6.942 6.942v0c0 0.183 0 0.367 0 0.55 1.667-1.957 4.133-3.189 6.887-3.189 0.039 0 0.078 0 0.117 0.001l-0.006-0zM23.506 13.136c2.753 0 5.219 1.233 6.875 3.176l0.011 0.013c0-0.183 0-0.367 0-0.55 0-3.834-3.108-6.942-6.942-6.942s-6.942 3.108-6.942 6.942v0c0 0.183 0 0.367 0 0.55 1.667-1.957 4.133-3.189 6.887-3.189 0.039 0 0.078 0 0.117 0.001l-0.006-0zM30.448 22.222c0 3.834-3.108 6.942-6.942 6.942s-6.942-3.108-6.942-6.942c0-3.834 3.108-6.942 6.942-6.942s6.942 3.108 6.942 6.942zM12.289 3.034h1.016v9.707h-1.016v-9.707z"></path>
</svg>
